# xmcd
#
# Track frame offsets: 
#        150
#        18328
#        34516
#        49997
#        66115
#        89526
#        106914
#        123119
#        139227
#        153400
#        171146
#        186002
#
# Disc length: 2650 seconds
#
# Revision: 0
# Processed by: cddbd v1.5.2PL0 Copyright (c) Steve Scherf et al.
# Submitted via: ExactAudioCopy v1.1
#
DISCID=990a580c
DTITLE=Dom Turner and Ian Collard - Mama Thinks We're Crazy Too
DYEAR=2010
DGENRE=Blues
TTITLE0=61 Highway
TTITLE1=Gallows Pole
TTITLE2=Drop Down Mama
TTITLE3=Broke Down Engine
TTITLE4=What's The Matter With Papa's Little Angel Child
TTITLE5=I Looked At The Sun
TTITLE6=Someday Baby
TTITLE7=Shake'em On Down
TTITLE8=Good Morning Little School Girl
TTITLE9=Red Cross Store
TTITLE10=My Babe
TTITLE11=Woke Up This Morning With My Mind Staying On Jesus
EXTD=
EXTT0=
EXTT1=
EXTT2=
EXTT3=
EXTT4=
EXTT5=
EXTT6=
EXTT7=
EXTT8=
EXTT9=
EXTT10=
EXTT11=
PLAYORDER=
